<?xml version="1.0" encoding="UTF-8" standalone="no"?>
<svg
   xmlns:dc="http://purl.org/dc/elements/1.1/"
   xmlns:cc="http://creativecommons.org/ns#"
   xmlns:rdf="http://www.w3.org/1999/02/22-rdf-syntax-ns#"
   xmlns:svg="http://www.w3.org/2000/svg"
   xmlns="http://www.w3.org/2000/svg"
   xmlns:sodipodi="http://sodipodi.sourceforge.net/DTD/sodipodi-0.dtd"
   xmlns:inkscape="http://www.inkscape.org/namespaces/inkscape"
   width="1792"
   height="1792"
   viewBox="0 0 1792 1792"
   version="1.1"
   id="svg4"
   sodipodi:docname="sm.svg"
   inkscape:version="0.92.2 5c3e80d, 2017-08-06">
  <metadata
     id="metadata10">
    <rdf:RDF>
      <cc:Work
         rdf:about="">
        <dc:format>image/svg+xml</dc:format>
        <dc:type
           rdf:resource="http://purl.org/dc/dcmitype/StillImage" />
      </cc:Work>
    </rdf:RDF>
  </metadata>
  <defs
     id="defs8" />
  <sodipodi:namedview
     pagecolor="#ffffff"
     bordercolor="#666666"
     borderopacity="1"
     objecttolerance="10"
     gridtolerance="10"
     guidetolerance="10"
     inkscape:pageopacity="0"
     inkscape:pageshadow="2"
     inkscape:window-width="776"
     inkscape:window-height="480"
     id="namedview6"
     showgrid="false"
     inkscape:zoom="0.13169643"
     inkscape:cx="896"
     inkscape:cy="896"
     inkscape:window-x="241"
     inkscape:window-y="239"
     inkscape:window-maximized="0"
     inkscape:current-layer="svg4" />
  <path
     d="m 1408,816 q -33,0 -56.5,23.5 -23.5,23.5 -23.5,56.5 0,33 23.5,56.5 23.5,23.5 56.5,23.5 33,0 56.5,-23.5 Q 1488,929 1488,896 1488,863 1464.5,839.5 1441,816 1408,816 Z M 1248,608 H 544 q -13,0 -22.5,9.5 Q 512,627 512,640 v 512 q 0,13 9.5,22.5 9.5,9.5 22.5,9.5 h 704 q 13,0 22.5,-9.5 9.5,-9.5 9.5,-22.5 V 640 q 0,-13 -9.5,-22.5 Q 1261,608 1248,608 Z M 400,800 q -16,0 -16,16 v 160 q 0,16 16,16 16,0 16,-16 V 816 q 0,-16 -16,-16 z M 384,512 h 1024 q 52,0 90,38 38,38 38,90 v 512 q 0,52 -38,90 -38,38 -90,38 H 384 q -52,0 -90,-38 -38,-38 -38,-90 V 640 q 0,-52 38,-90 38,-38 90,-38 z"
     id="path2"
     inkscape:connector-curvature="0" />
</svg>
