<?xml version="1.0" encoding="iso-8859-1"?>
<!-- Generator: Adobe Illustrator 19.0.0, SVG Export Plug-In . SVG Version: 6.00 Build 0)  -->
<svg version="1.1" id="Layer_1" xmlns="http://www.w3.org/2000/svg" xmlns:xlink="http://www.w3.org/1999/xlink" x="0px" y="0px"
	 viewBox="0 0 512 512" style="enable-background:new 0 0 512 512;" xml:space="preserve">
<circle style="fill:#2DB8D4;" cx="256" cy="256" r="247.83"/>
<path style="fill:#405A0F;" d="M438.657,142.411H333.079v206.185h17.662l113.397-147.137
	C458.601,180.344,449.936,160.483,438.657,142.411z"/>
<path style="fill:#89EBFF;" d="M61.749,348.596C96.359,421.072,170.329,471.149,256,471.149c85.672,0,159.64-50.077,194.251-122.553
	L256,326.809L61.749,348.596z"/>
<path style="fill:#557714;" d="M73.343,142.411h105.578v206.185h-17.662L47.862,201.459
	C53.399,180.344,62.064,160.483,73.343,142.411z"/>
<path style="fill:#89EBFF;" d="M332.857,142.416c-2.748-17.763-19.703-32.296-37.678-32.296H216.6
	c-17.974,0-34.929,14.533-37.678,32.296l-25.505,164.839L256,328.963l102.336-21.869L332.857,142.416z"/>
<g>
	<path style="fill:#C4F5FF;" d="M471.149,256c0-18.838-2.441-37.117-7.011-54.541c-26.453-5.551-52.418,11.358-58.024,37.812
		c-1.539,7.265-1.387,14.493,0.197,21.277c-32.885,7.092-57.54,36.23-57.54,71.234c0,5.789,0.694,11.413,1.969,16.813h99.434
		C463.612,320.536,471.149,289.133,471.149,256z"/>
	<path style="fill:#C4F5FF;" d="M40.851,256c0-18.838,2.441-37.117,7.011-54.541c26.453-5.551,52.418,11.358,58.024,37.812
		c1.539,7.265,1.387,14.493-0.197,21.277c32.885,7.092,57.54,36.23,57.54,71.234c0,5.789-0.694,11.413-1.968,16.813H61.827
		C48.388,320.536,40.851,289.133,40.851,256z"/>
</g>
<path style="fill:#FFFFFF;" d="M332.256,299.574c-7.427,0-14.463,1.66-20.771,4.617c-8.927-21.875-30.4-37.298-55.484-37.298
	c-25.085,0-46.557,15.422-55.484,37.298c-6.308-2.957-13.345-4.617-20.771-4.617c-27.074,0-49.021,21.947-49.021,49.021h250.553
	C381.278,321.522,359.33,299.574,332.256,299.574z"/>
<g>
	<path style="fill:#03242B;" d="M437.019,74.981C388.667,26.628,324.38,0,256,0S123.333,26.628,74.981,74.981
		C26.628,123.332,0,187.62,0,256s26.628,132.668,74.981,181.019C123.333,485.372,187.62,512,256,512s132.667-26.628,181.019-74.981
		C485.372,388.668,512,324.38,512,256S485.372,123.332,437.019,74.981z M256,495.66c-132.149,0-239.66-107.51-239.66-239.66
		S123.851,16.34,256,16.34S495.66,123.851,495.66,256S388.149,495.66,256,495.66z"/>
	<path style="fill:#03242B;" d="M223.319,51.505c10.593,0,20.191,5.457,25.674,14.596c1.476,2.461,4.136,3.966,7.007,3.966
		c2.87,0,5.53-1.506,7.007-3.966c5.483-9.14,15.082-14.596,25.674-14.596c4.513,0,8.17-3.658,8.17-8.17s-3.657-8.17-8.17-8.17
		c-12.513,0-24.123,4.911-32.681,13.516c-8.558-8.605-20.167-13.516-32.681-13.516c-4.513,0-8.17,3.658-8.17,8.17
		S218.806,51.505,223.319,51.505z"/>
	<path style="fill:#03242B;" d="M340.727,83.965c3.848,0,7.337,1.987,9.334,5.315c1.476,2.461,4.136,3.966,7.007,3.966
		s5.53-1.506,7.007-3.966c1.997-3.328,5.486-5.315,9.334-5.315c4.513,0,8.17-3.658,8.17-8.17c0-4.512-3.657-8.17-8.17-8.17
		c-5.949,0-11.682,1.992-16.34,5.489c-4.658-3.497-10.391-5.489-16.34-5.489c-4.513,0-8.17,3.658-8.17,8.17
		C332.557,80.307,336.215,83.965,340.727,83.965z"/>
	<path style="fill:#03242B;" d="M307.806,210.181c-0.348-4.498-4.27-7.859-8.776-7.516c-4.499,0.348-7.864,4.277-7.516,8.776
		l2.769,35.811c0.331,4.284,3.911,7.541,8.138,7.541c0.21,0,0.425-0.009,0.638-0.025c4.499-0.348,7.864-4.277,7.516-8.776
		L307.806,210.181z"/>
	<path style="fill:#03242B;" d="M297.132,186.397c0.21,0,0.425-0.009,0.638-0.025c4.499-0.348,7.864-4.277,7.515-8.776
		l-2.768-35.812c-0.348-4.498-4.272-7.859-8.776-7.516c-4.499,0.348-7.864,4.277-7.515,8.776l2.768,35.812
		C289.326,183.141,292.905,186.397,297.132,186.397z"/>
	<path style="fill:#03242B;" d="M255.89,134.245c-4.513,0-8.171,3.657-8.171,8.17l-0.007,91.797c0,4.512,3.657,8.17,8.169,8.17
		c4.513,0,8.171-3.657,8.171-8.17l0.008-91.797C264.059,137.903,260.402,134.245,255.89,134.245z"/>
	<path style="fill:#03242B;" d="M218.036,134.269c-4.495-0.341-8.427,3.016-8.777,7.514l-8.079,104.352
		c-0.348,4.499,3.016,8.428,7.514,8.777c0.215,0.016,0.428,0.025,0.639,0.025c4.226,0,7.805-3.256,8.138-7.539l8.079-104.352
		C225.899,138.547,222.535,134.618,218.036,134.269z"/>
	<path style="fill:#03242B;" d="M348.597,389.447c4.513,0,8.17-3.658,8.17-8.17s-3.657-8.17-8.17-8.17h-119.83
		c-4.513,0-8.17,3.658-8.17,8.17s3.657,8.17,8.17,8.17H348.597z"/>
	<path style="fill:#03242B;" d="M196.086,373.106h-32.681c-4.513,0-8.17,3.658-8.17,8.17s3.657,8.17,8.17,8.17h32.681
		c4.513,0,8.17-3.658,8.17-8.17S200.599,373.106,196.086,373.106z"/>
	<path style="fill:#03242B;" d="M187.916,413.957c0,4.512,3.657,8.17,8.17,8.17h119.83c4.513,0,8.17-3.658,8.17-8.17
		c0-4.512-3.657-8.17-8.17-8.17h-119.83C191.573,405.787,187.916,409.445,187.916,413.957z"/>
	<path style="fill:#03242B;" d="M472.37,200.725c-0.079-0.87-0.305-1.708-0.645-2.491c-5.664-21.134-14.437-41.402-26.138-60.148
		c-1.492-2.391-4.111-3.844-6.931-3.844H365.76c-4.512,0-8.17,3.658-8.17,8.17c0,4.512,3.657,8.17,8.17,8.17h68.307
		c7.843,13.2,14.126,27.181,18.823,41.666c-10.576,0.198-20.91,3.329-29.998,9.24c-12.808,8.328-21.604,21.146-24.77,36.089
		c-1.185,5.591-1.531,11.219-1.039,16.814c-5.58,1.703-10.916,4.121-15.938,7.226c-3.838,2.373-5.026,7.408-2.655,11.245
		c1.546,2.499,4.22,3.875,6.958,3.875c1.466,0,2.95-0.394,4.289-1.222c5.566-3.44,11.635-5.771,18.04-6.927
		c2.203-0.398,4.147-1.682,5.377-3.553c1.23-1.872,1.637-4.165,1.129-6.346c-1.367-5.853-1.426-11.817-0.173-17.725
		c2.262-10.675,8.546-19.83,17.692-25.779c7.713-5.015,16.682-7.233,25.705-6.453c3.613,15.405,5.473,31.255,5.473,47.268
		c0,30.054-6.446,58.629-18.016,84.426h-56.108c-2.241-15.594-10.794-29.17-22.982-38.058l-24.942-161.202
		c-3.346-21.625-23.871-39.217-45.752-39.217h-78.58c-19.489,0-37.89,13.961-44.048,32.292H73.343c-2.819,0-5.438,1.453-6.931,3.844
		c-11.702,18.749-20.478,39.022-26.141,60.161c-0.336,0.777-0.558,1.606-0.638,2.467c-4.592,17.959-6.952,36.52-6.952,55.286
		c0,53.286,19.16,104.921,53.948,145.392c1.616,1.88,3.901,2.844,6.198,2.844c1.886,0,3.781-0.649,5.323-1.975
		c3.423-2.941,3.812-8.1,0.87-11.522c-9.085-10.569-17.019-21.959-23.732-33.974h240.626c4.513,0,8.17-3.658,8.17-8.17
		s-3.657-8.17-8.17-8.17H139.717c3.795-18.624,20.3-32.681,40.029-32.681c6.038,0,11.86,1.294,17.305,3.844
		c2.028,0.951,4.357,1.026,6.441,0.211c2.085-0.815,3.745-2.45,4.591-4.523c7.985-19.569,26.795-32.214,47.919-32.214
		c21.124,0,39.934,12.644,47.919,32.214c0.845,2.073,2.506,3.708,4.591,4.523c2.087,0.816,4.414,0.739,6.441-0.211
		c5.445-2.551,11.266-3.844,17.305-3.844c19.728,0,36.233,14.057,40.029,32.681h-23.688c-4.513,0-8.17,3.658-8.17,8.17
		s3.657,8.17,8.17,8.17h88.139C401.297,420.079,333.57,462.979,256,462.979c-49.38,0-97.232-17.757-134.741-50
		c-3.42-2.94-8.579-2.552-11.521,0.869c-2.941,3.422-2.552,8.58,0.87,11.522c40.471,34.79,92.106,53.948,145.392,53.948
		c123.138,0,223.319-100.18,223.319-223.319C479.319,237.238,476.96,218.682,472.37,200.725z M67.086,340.426
		C55.271,314.048,49.021,285.293,49.021,256c0-16.014,1.86-31.864,5.474-47.267c9.024-0.78,17.994,1.438,25.707,6.453
		c9.146,5.948,15.431,15.104,17.692,25.779c1.252,5.909,1.194,11.872-0.173,17.725c-0.509,2.18-0.101,4.474,1.129,6.346
		c1.23,1.87,3.173,3.155,5.377,3.553c6.404,1.156,12.473,3.487,18.04,6.927c1.339,0.828,2.823,1.222,4.289,1.222
		c2.738,0,5.412-1.376,6.958-3.875c2.373-3.838,1.184-8.873-2.655-11.245c-5.022-3.105-10.359-5.522-15.938-7.226
		c0.491-5.595,0.146-11.223-1.039-16.814c-3.166-14.945-11.962-27.761-24.77-36.089c-9.089-5.91-19.424-9.042-30.001-9.24
		c4.698-14.485,10.98-28.466,18.824-41.667h91.457l-23.513,151.966c-12.055,8.89-20.505,22.391-22.731,37.878L67.086,340.426
		L67.086,340.426z M315.599,293.873c-11.887-21.586-34.501-35.149-59.598-35.149s-47.711,13.563-59.598,35.149
		c-5.371-1.641-10.946-2.469-16.657-2.469c-5.539,0-10.893,0.807-15.961,2.283l23.212-150.023
		c2.129-13.754,15.685-25.376,29.603-25.376h78.58c13.918,0,27.475,11.62,29.603,25.376l23.201,149.956
		c-5-1.432-10.273-2.217-15.727-2.217C326.545,291.404,320.97,292.232,315.599,293.873z"/>
</g>
<g>
</g>
<g>
</g>
<g>
</g>
<g>
</g>
<g>
</g>
<g>
</g>
<g>
</g>
<g>
</g>
<g>
</g>
<g>
</g>
<g>
</g>
<g>
</g>
<g>
</g>
<g>
</g>
<g>
</g>
</svg>
